<?xml version="1.0" standalone="no"?>
<!DOCTYPE svg PUBLIC "-//W3C//DTD SVG 1.1//EN" "http://www.w3.org/Graphics/SVG/1.1/DTD/svg11.dtd">

<svg width="800" height="600" version="1.1" xmlns="http://www.w3.org/2000/svg">
	<ellipse stroke="black" stroke-width="1" fill="none" cx="123.5" cy="205.5" rx="30" ry="30"/>
	<text x="116.5" y="211.5" font-family="Times New Roman" font-size="20">A</text>
	<ellipse stroke="black" stroke-width="1" fill="none" cx="284.5" cy="205.5" rx="30" ry="30"/>
	<text x="277.5" y="211.5" font-family="Times New Roman" font-size="20">B</text>
	<ellipse stroke="black" stroke-width="1" fill="none" cx="432.5" cy="205.5" rx="30" ry="30"/>
	<text x="425.5" y="211.5" font-family="Times New Roman" font-size="20">C</text>
	<ellipse stroke="black" stroke-width="1" fill="none" cx="432.5" cy="205.5" rx="24" ry="24"/>
	<polygon stroke="black" stroke-width="1" points="153.5,205.5 254.5,205.5"/>
	<polygon fill="black" stroke-width="1" points="254.5,205.5 246.5,200.5 246.5,210.5"/>
	<text x="199.5" y="226.5" font-family="Times New Roman" font-size="20">a</text>
	<path stroke="black" stroke-width="1" fill="none" d="M 274.153,177.466 A 22.5,22.5 0 1 1 300.458,180.235"/>
	<text x="289.5" y="128.5" font-family="Times New Roman" font-size="20">a</text>
	<polygon fill="black" stroke-width="1" points="300.458,180.235 309.527,177.637 302.097,170.944"/>
	<polygon stroke="black" stroke-width="1" points="314.5,205.5 402.5,205.5"/>
	<polygon fill="black" stroke-width="1" points="402.5,205.5 394.5,200.5 394.5,210.5"/>
	<text x="353.5" y="226.5" font-family="Times New Roman" font-size="20">b</text>
	<path stroke="black" stroke-width="1" fill="none" d="M 423.197,177.102 A 22.5,22.5 0 1 1 449.382,180.843"/>
	<text x="440.5" y="128.5" font-family="Times New Roman" font-size="20">b</text>
	<polygon fill="black" stroke-width="1" points="449.382,180.843 458.541,178.582 451.363,171.619"/>
</svg>
